<?xml version="1.0" encoding="UTF-8"?>
<svg xmlns="http://www.w3.org/2000/svg" id="Layer_2" viewBox="0 0 1190.89 260.23">
  <defs>
    <style>.cls-1{fill:#fff;}</style>
  </defs>
  <g id="Layer_1-2">
    <path class="cls-1" d="m729.29,91.86c.37.38.8.68,1.29.9.49.22,1.01.33,1.56.33s1.07-.11,1.56-.33c.49-.22.92-.52,1.27-.9s.64-.84.84-1.35c.2-.52.31-1.07.31-1.64,0-1.2-.38-2.22-1.15-3.04-.77-.82-1.71-1.23-2.83-1.23s-2.07.41-2.85,1.23c-.78.82-1.17,1.83-1.17,3.04,0,.57.1,1.12.31,1.64.2.52.49.97.86,1.35Z"></path>
    <path class="cls-1" d="m646.96,145.02c.48.22.99.33,1.54.33s1.06-.11,1.54-.33c.48-.22.9-.52,1.27-.9.37-.38.66-.84.86-1.35.2-.52.31-1.07.31-1.64s-.1-1.16-.31-1.68c-.2-.52-.49-.98-.86-1.38-.37-.4-.79-.7-1.27-.92-.48-.22-.99-.33-1.54-.33s-1.06.11-1.54.33c-.48.22-.9.53-1.27.92-.37.4-.66.86-.86,1.38-.21.52-.31,1.08-.31,1.68s.1,1.12.31,1.64c.2.52.49.97.86,1.35.37.38.79.68,1.27.9Z"></path>
    <rect class="cls-1" x="359.53" y="76.15" width="9.19" height="55.3"></rect>
    <rect class="cls-1" x="410.15" y="76.15" width="9.19" height="43.81"></rect>
    <path class="cls-1" d="m1136.87,131.44h40.12c2.65,0,4.91-.96,6.77-2.87,1.89-1.91,2.83-4.21,2.83-6.89v-13.58c0-2.71-.94-5.01-2.83-6.89-1.86-1.89-4.12-2.83-6.77-2.83h-12.43l22.23-22.23h-11.32l-22.11,22.11v6.48h20.76c2.19,0,3.28,1.37,3.28,4.1v12.02c0,2.82-1.09,4.22-3.28,4.22h-88.85c-1.58,0-2.72-.29-3.4-.86-.69-.57-1.03-1.64-1.03-3.2v-44.88h-9.19v44.88c0,1.56-.34,2.62-1.03,3.2-.71.57-1.74.86-3.08.86h-65.14c-1.61,0-2.76-.29-3.45-.86-.68-.57-1.03-1.63-1.03-3.16v-22.69h-9.19v22.69c0,1.53-.34,2.58-1.03,3.16-.71.57-1.86.86-3.45.86h-65.5c-2.95,0-4.43-1.08-4.43-3.24v-23.46h-15.3c-2.62,0-4.9.96-6.81,2.87-1.92,1.97-2.87,4.24-2.87,6.81v13.7c0,2.65.91,4.95,2.75,6.89,1.86,1.86,4.14,2.79,6.85,2.79h5.66c2.41,0,4.54-.82,6.4-2.46,1.75,1.59,3.86,2.41,6.32,2.46h71.08c1.23-.03,2.38-.25,3.45-.66,1.06-.41,2.04-1.05,2.91-1.93,1.81,1.67,3.95,2.53,6.44,2.59h70.1c2.49-.05,4.61-.92,6.36-2.59,1.75,1.67,3.87,2.53,6.36,2.59h52.83Zm-231.71-10.38c0,2.68-1.09,4.02-3.28,4.02s-3.32-1.31-3.32-3.94v-12.39c0-2.68,1.08-4.02,3.24-4.02h3.36v16.33Z"></path>
    <path class="cls-1" d="m547.74,138.08c-.37-.38-.79-.68-1.27-.9-.48-.22-.99-.33-1.54-.33s-1.06.11-1.54.33c-.48.22-.9.52-1.27.9-.37.38-.66.84-.86,1.36-.2.52-.31,1.06-.31,1.64s.1,1.16.31,1.68c.2.52.49.97.86,1.35.37.38.79.68,1.27.9.48.22.99.33,1.54.33s1.06-.11,1.54-.33.9-.52,1.27-.9c.37-.38.66-.84.86-1.35.21-.52.31-1.08.31-1.68s-.1-1.12-.31-1.64c-.2-.52-.49-.97-.86-1.36Z"></path>
    <path class="cls-1" d="m391.44,98.38h-14.52v6.36h11.86c2.02,0,3.03,1.38,3.03,4.14v16.2h-14.89v6.36h24.08v-23.34c0-2.68-.93-4.96-2.79-6.85-1.86-1.91-4.12-2.87-6.77-2.87Z"></path>
    <path class="cls-1" d="m894.08,91.86c.36.38.77.68,1.25.9.48.22.99.33,1.54.33.57,0,1.1-.11,1.58-.33.48-.22.9-.52,1.27-.9.37-.38.66-.84.86-1.35.2-.52.31-1.07.31-1.64,0-1.2-.38-2.22-1.15-3.04-.77-.82-1.72-1.23-2.87-1.23-.55,0-1.06.11-1.54.33-.48.22-.9.52-1.25.9-.35.38-.64.84-.84,1.35-.21.52-.31,1.08-.31,1.68s.1,1.12.31,1.64c.2.52.49.97.84,1.35Z"></path>
    <path class="cls-1" d="m903.37,91.86c.37.38.79.68,1.27.9.48.22.99.33,1.54.33s1.06-.11,1.54-.33c.48-.22.9-.52,1.27-.9s.66-.84.88-1.35c.22-.52.33-1.07.33-1.64s-.11-1.16-.33-1.68c-.22-.52-.51-.97-.88-1.35-.37-.38-.79-.68-1.27-.9s-.99-.33-1.54-.33-1.06.11-1.54.33-.9.52-1.27.9c-.37.38-.66.84-.86,1.35-.2.52-.31,1.08-.31,1.68s.1,1.12.31,1.64c.21.52.49.97.86,1.35Z"></path>
    <path class="cls-1" d="m420.32,144.12h-5.04v-2.17c0-.96.19-1.59.57-1.89.3-.38.92-.57,1.85-.57h2.62v-3.36h-2.87c-1.59,0-2.9.53-3.94,1.6-1.09,1.07-1.67,2.38-1.72,3.94v2.46h-2.58v3.32h11.11v-3.32Z"></path>
    <path class="cls-1" d="m557.03,138.08c-.36-.38-.77-.68-1.25-.9-.48-.22-.99-.33-1.54-.33s-1.06.11-1.54.33c-.48.22-.9.52-1.27.9-.37.38-.66.84-.86,1.36-.2.52-.31,1.06-.31,1.64s.1,1.16.31,1.68c.21.52.49.97.86,1.35.37.38.79.68,1.27.9s.99.33,1.54.33,1.06-.11,1.54-.33.9-.52,1.25-.9c.35-.38.64-.84.84-1.35.2-.52.31-1.08.31-1.68s-.1-1.12-.31-1.64c-.2-.52-.49-.97-.84-1.36Z"></path>
    <path class="cls-1" d="m703.06,131.44h46.89v-23.51c0-2.68-.96-4.93-2.87-6.77-1.86-1.86-4.16-2.79-6.89-2.79h-18.46v-22.23h-9.19v48.94h-50.7c-1.61,0-2.76-.29-3.45-.86-.69-.57-1.03-1.63-1.03-3.16v-22.69h-9.19v22.69c0,1.53-.34,2.58-1.03,3.16-.71.57-1.86.86-3.45.86h-57.05v-16.94c0-2.63-.94-4.92-2.83-6.89-.96-.96-1.99-1.67-3.1-2.15-1.11-.48-2.34-.72-3.71-.72h-5.7c-2.65,0-4.91.96-6.77,2.87-1.91,2-2.87,4.3-2.87,6.89v16.94h-22.6c-2.11,0-3.16-1.35-3.16-4.06v-22.64h-9.19v23.38c0,1.31.24,2.54.72,3.67.48,1.14,1.17,2.18,2.07,3.14,1.91,1.91,4.18,2.87,6.81,2.87h34.54v-22.69c0-2.68,1.09-4.02,3.28-4.02s3.32,1.34,3.32,4.02v22.69h70.39c1.23-.03,2.38-.25,3.45-.66,1.07-.41,2.04-1.05,2.91-1.93,1.8,1.67,3.95,2.53,6.44,2.59h42.41Zm18.67-22.27c0-2.95,1.37-4.43,4.1-4.43h10.79c2.76,0,4.14,1.59,4.14,4.76v15.59h-19.03v-15.92Z"></path>
    <path class="cls-1" d="m867.42,68.15h-5.05v-2.17c0-.96.19-1.58.57-1.89.3-.38.92-.57,1.85-.57h2.63v-3.36h-2.87c-1.59,0-2.9.53-3.94,1.6-1.09,1.06-1.67,2.38-1.72,3.94v2.46h-2.59v3.32h11.12v-3.32Z"></path>
    <path class="cls-1" d="m838.91,121.02c0,1.53-.34,2.6-1.03,3.2-.71.57-1.86.86-3.45.86h-51.35v-26.71h-15.34c-2.68,0-4.94.96-6.77,2.87-1.89,1.86-2.83,4.15-2.83,6.85v13.62c0,2.68.94,4.96,2.83,6.85,1.83,1.91,4.06,2.87,6.69,2.87h6.24v3.4c0,.55-.06,1.05-.17,1.52-.11.47-.3.89-.57,1.27-.57.9-1.35,1.35-2.34,1.35h-3.53v6.36h6.19c2.6,0,4.86-.96,6.77-2.87,1.89-1.89,2.83-4.17,2.83-6.85v-4.18h55.5c2.62-.05,4.87-1.03,6.73-2.91,1.86-1.91,2.79-4.17,2.79-6.77v-23.38h-9.19v22.64Zm-65.01,4.06h-2.18c-2.93,0-4.39-1.35-4.39-4.06v-12.14c0-2.76,1.6-4.14,4.8-4.14h1.76v20.35Z"></path>
    <path class="cls-1" d="m480.33,131.44h14.93c2.62-.05,4.87-1.03,6.73-2.91,1.86-1.91,2.79-4.17,2.79-6.77v-45.61h-9.19v44.88c0,1.53-.34,2.6-1.03,3.2-.71.57-1.74.86-3.08.86h-52.34c-1.59,0-2.72-.29-3.4-.86-.69-.57-1.03-1.64-1.03-3.2v-44.88h-9.19v44.88c0,1.56-.34,2.62-1.03,3.2-.71.57-1.83.86-3.36.86h-10.99v6.36h14.28c2.49-.05,4.61-.92,6.36-2.59,1.75,1.67,3.87,2.53,6.36,2.59h43.19Z"></path>
    <rect class="cls-1" x="857.25" y="76.15" width="9.19" height="55.3"></rect>
    <path class="cls-1" d="m307.62,91.84c.37.39.79.7,1.27.92.48.22.99.33,1.54.33s1.06-.11,1.54-.33c.48-.22.9-.53,1.27-.92.37-.4.66-.86.86-1.38s.31-1.08.31-1.68-.1-1.12-.31-1.64-.49-.97-.86-1.36c-.37-.38-.79-.68-1.27-.9-.48-.22-.99-.33-1.54-.33s-1.06.11-1.54.33c-.48.22-.9.52-1.27.9-.37.38-.66.84-.86,1.36s-.31,1.06-.31,1.64c0,.6.1,1.16.31,1.68s.49.98.86,1.38Z"></path>
    <path class="cls-1" d="m348.49,142.47c1.89-1.89,2.83-4.16,2.83-6.81v-37.29h-9.19v36.47c0,2.76-1.03,4.14-3.08,4.14h-3.04v6.36h5.7c2.62,0,4.88-.96,6.77-2.87Z"></path>
    <path class="cls-1" d="m999.64,145.02c.48-.22.9-.52,1.27-.9.37-.38.66-.84.86-1.35.2-.52.31-1.07.31-1.64s-.1-1.16-.31-1.68c-.2-.52-.49-.97-.86-1.36-.37-.38-.79-.68-1.27-.9-.48-.22-.99-.33-1.54-.33s-1.06.11-1.54.33c-.48.22-.9.52-1.27.9-.37.38-.66.84-.86,1.36-.2.52-.31,1.08-.31,1.68s.1,1.12.31,1.64c.2.52.49.97.86,1.35.37.38.79.68,1.27.9s.99.33,1.54.33,1.06-.11,1.54-.33Z"></path>
    <path class="cls-1" d="m316.93,91.84c.37.39.79.7,1.27.92.48.22.99.33,1.54.33s1.06-.11,1.54-.33c.48-.22.89-.53,1.25-.92.36-.4.64-.86.84-1.38.2-.52.31-1.08.31-1.68s-.1-1.12-.31-1.64c-.2-.52-.49-.97-.84-1.36-.36-.38-.77-.68-1.25-.9-.48-.22-.99-.33-1.54-.33s-1.06.11-1.54.33c-.48.22-.9.52-1.27.9-.37.38-.66.84-.86,1.36s-.31,1.06-.31,1.64c0,.6.1,1.16.31,1.68s.49.98.86,1.38Z"></path>
    <path class="cls-1" d="m987.25,145.02c.48.22.99.33,1.54.33s1.06-.11,1.54-.33.9-.52,1.27-.9c.37-.38.66-.84.86-1.35.2-.52.31-1.07.31-1.64s-.1-1.16-.31-1.68c-.2-.52-.49-.97-.86-1.36-.37-.38-.79-.68-1.27-.9-.48-.22-.99-.33-1.54-.33s-1.06.11-1.54.33c-.48.22-.9.52-1.25.9-.35.38-.64.84-.84,1.36-.2.52-.31,1.08-.31,1.68s.1,1.12.31,1.64c.2.52.49.97.84,1.35.35.38.77.68,1.25.9Z"></path>
    <path class="cls-1" d="m305.75,101.33c-1.91,1.91-2.87,4.18-2.87,6.81v13.53c0,2.74.92,5.03,2.75,6.89,1.89,1.91,4.17,2.87,6.85,2.87h5.74c2.65,0,4.91-.97,6.77-2.91,1.89-1.89,2.83-4.17,2.83-6.85v-23.3h-15.3c-2.68,0-4.94.99-6.77,2.95Zm9.56,3.4h3.32v16.33c0,2.68-1.08,4.02-3.24,4.02s-3.32-1.34-3.32-4.02v-12.31c0-2.68,1.08-4.02,3.24-4.02Z"></path>
    <path class="cls-1" d="m839.2,136.9c-1.12,0-2.07.41-2.85,1.23-.78.82-1.17,1.85-1.17,3.08,0,.57.1,1.12.31,1.64.2.52.49.97.86,1.35.37.38.8.69,1.29.9.49.22,1.01.33,1.56.33s1.07-.11,1.56-.33c.49-.22.92-.52,1.27-.9.35-.38.64-.83.84-1.35.2-.52.31-1.07.31-1.64,0-1.23-.38-2.26-1.15-3.08-.77-.82-1.71-1.23-2.83-1.23Z"></path>
    <polygon class="cls-1" points="465.29 180.52 453.02 180.52 453.02 166.59 445.64 166.59 445.64 200.55 453.02 200.55 453.02 185.95 465.29 185.95 465.29 200.55 472.67 200.55 472.67 166.59 465.29 166.59 465.29 180.52"></polygon>
    <path class="cls-1" d="m307.62,166.59l-11.21,33.96h7.42l2.42-7.62h10.85l2.54,7.62h7.42l-11.21-33.96h-8.25Zm.36,20.91l3.79-11.93,3.56,11.93h-7.35Z"></path>
    <path class="cls-1" d="m432.4,168.9c-2.59-1.54-5.64-2.3-9.17-2.3h-13.24v33.96h13.24c2.68,0,5.1-.44,7.25-1.33s3.92-2.12,5.31-3.69c1.39-1.57,2.46-3.38,3.2-5.43.74-2.06,1.12-4.25,1.12-6.58,0-3.17-.64-6.02-1.92-8.54-1.28-2.52-3.21-4.55-5.8-6.09Zm-2.3,23.14c-1.7,2.06-3.99,3.08-6.86,3.08h-5.87v-23.09h5.87c2.91,0,5.21,1,6.89,3.01,1.68,2.01,2.52,4.84,2.52,8.49s-.85,6.46-2.55,8.51Z"></path>
    <path class="cls-1" d="m350.36,182.02c1.65-1.72,2.47-3.74,2.47-6.07,0-2.55-.97-4.75-2.91-6.6-1.94-1.84-4.33-2.77-7.18-2.77h-11.74v33.96h12.76c3.13,0,5.76-1.01,7.88-3.03,2.12-2.02,3.18-4.44,3.18-7.25,0-1.68-.39-3.24-1.16-4.66-.78-1.42-1.88-2.62-3.3-3.59Zm-11.98-9.99h4.13c.78,0,1.45.36,2.01,1.09.56.73.85,1.67.85,2.84s-.28,2.11-.85,2.84c-.57.73-1.24,1.09-2.01,1.09h-4.13v-7.86Zm7.84,21.73c-.76.91-1.66,1.36-2.69,1.36h-5.14v-9.8h5.14c1.04,0,1.93.45,2.69,1.36.76.9,1.14,2.08,1.14,3.54s-.38,2.64-1.14,3.54Z"></path>
    <path class="cls-1" d="m381.75,184.79c0,3.85-.53,6.6-1.6,8.25-1.07,1.65-2.94,2.47-5.63,2.47s-4.56-.83-5.63-2.47c-1.07-1.65-1.6-4.4-1.6-8.25v-18.19h-7.37v18.19c0,2.43.24,4.58.73,6.48s1.28,3.58,2.38,5.07c1.1,1.49,2.62,2.63,4.56,3.42,1.94.79,4.26,1.19,6.96,1.19s5.01-.39,6.94-1.19c1.92-.79,3.44-1.93,4.54-3.42,1.1-1.49,1.89-3.18,2.38-5.07.48-1.89.73-4.05.73-6.48v-18.19h-7.37v18.19Z"></path>
    <polygon class="cls-1" points="884.27 166.59 876.92 190.1 869.57 166.59 860.18 166.59 857.97 200.55 865.37 200.55 866.61 180.38 872.82 200.55 881.28 200.55 887.37 180.59 888.54 200.55 895.69 200.55 893.54 166.59 884.27 166.59"></polygon>
    <path class="cls-1" d="m1013.27,187.75h6.07v6.16c-.68.61-1.47,1.03-2.38,1.24-.9.21-2.07.32-3.49.32-2.85,0-5.13-1.07-6.84-3.23-1.72-2.15-2.57-5.06-2.57-8.73s.86-6.58,2.57-8.73c1.72-2.15,3.99-3.23,6.84-3.23,1.91,0,3.59.29,5.04.87,1.46.58,3.48,1.72,6.07,3.4l1.07-5.87c-3.72-2.55-7.78-3.83-12.18-3.83-2.69,0-5.1.47-7.25,1.41-2.15.94-3.92,2.21-5.31,3.81-1.39,1.6-2.46,3.45-3.2,5.53-.74,2.09-1.12,4.3-1.12,6.65s.37,4.56,1.12,6.65c.74,2.09,1.81,3.93,3.2,5.53,1.39,1.6,3.16,2.87,5.31,3.81,2.15.94,4.57,1.41,7.25,1.41,3.01,0,5.66-.45,7.96-1.36,2.3-.91,4.06-2.28,5.29-4.13v-13.1h-13.44v5.43Z"></path>
    <polygon class="cls-1" points="1032.49 200.55 1055.77 200.55 1055.77 195.12 1039.86 195.12 1039.86 185.32 1054.7 185.32 1054.7 179.89 1039.86 179.89 1039.86 172.03 1055.77 172.03 1055.77 166.59 1032.49 166.59 1032.49 200.55"></polygon>
    <polygon class="cls-1" points="953.36 187.4 940.35 166.59 933.42 166.59 933.42 200.55 940.79 200.55 940.79 179.84 953.74 200.55 960.73 200.55 960.73 166.59 953.36 166.59 953.36 187.4"></polygon>
    <path class="cls-1" d="m910.51,166.59l-11.2,33.96h7.42l2.42-7.62h10.85l2.54,7.62h7.42l-11.21-33.96h-8.25Zm.36,20.91l3.79-11.93,3.56,11.93h-7.35Z"></path>
    <path class="cls-1" d="m975.38,166.59l-11.2,33.96h7.42l2.42-7.62h10.86l2.54,7.62h7.42l-11.21-33.96h-8.25Zm.36,20.91l3.79-11.93,3.56,11.93h-7.35Z"></path>
    <polygon class="cls-1" points="1164.01 166.59 1164.01 172.03 1173.76 172.03 1173.76 200.55 1181.13 200.55 1181.13 172.03 1190.89 172.03 1190.89 166.59 1164.01 166.59"></polygon>
    <polygon class="cls-1" points="1151.98 187.4 1138.97 166.59 1132.04 166.59 1132.04 200.55 1139.41 200.55 1139.41 179.84 1152.37 200.55 1159.35 200.55 1159.35 166.59 1151.98 166.59 1151.98 187.4"></polygon>
    <polygon class="cls-1" points="1104.19 200.55 1127.48 200.55 1127.48 195.12 1111.57 195.12 1111.57 185.32 1126.41 185.32 1126.41 179.89 1111.57 179.89 1111.57 172.03 1127.48 172.03 1127.48 166.59 1104.19 166.59 1104.19 200.55"></polygon>
    <polygon class="cls-1" points="1086.34 166.59 1078.99 190.1 1071.64 166.59 1062.25 166.59 1060.04 200.55 1067.43 200.55 1068.68 180.38 1074.89 200.55 1083.34 200.55 1089.43 180.59 1090.61 200.55 1097.75 200.55 1095.6 166.59 1086.34 166.59"></polygon>
    <path class="cls-1" d="m586.49,183.74c-.42-.26-3.25-1.79-8.49-4.61-1.05-.59-1.79-1.17-2.22-1.74-.43-.57-.65-1.26-.65-2.08,0-.16.01-.36.05-.59.03-.52.18-.99.44-1.39.26-.41.74-.78,1.45-1.13.71-.34,1.63-.52,2.77-.52,2.29,0,5.17.49,8.64,1.45l1.02-5.63c-3.85-.87-7.07-1.31-9.65-1.31-2.01,0-3.8.27-5.39.8-1.58.53-2.84,1.23-3.76,2.09-.92.86-1.63,1.75-2.11,2.69-.49.94-.76,1.86-.82,2.77v.83c0,2.17.52,3.89,1.55,5.17,1.04,1.28,2.6,2.48,4.7,3.61,3.91,2.11,6.47,3.53,7.7,4.25,1.52.9,2.28,2.07,2.28,3.52,0,2.46-1.78,3.61-5.33,3.45-2.39-.1-5.83-.79-10.32-2.09l-.97,5.58c4.16,1.23,7.81,1.91,10.94,2.04,2.07.1,4.08-.21,6.03-.92,1.95-.71,3.59-1.77,4.89-3.19,1.31-1.42,2.01-3.01,2.11-4.78.1-1.84-.25-3.42-1.04-4.76-.79-1.34-2.06-2.5-3.81-3.5Z"></path>
    <path class="cls-1" d="m607.49,173c1.42-.97,3.07-1.45,4.95-1.45,1.46,0,2.77.2,3.93.61,1.16.4,2.96,1.25,5.38,2.55l1.02-6.06c-3.65-1.68-7.1-2.52-10.33-2.52-2.65,0-5.06.47-7.23,1.41-2.17.94-3.95,2.21-5.34,3.81-1.39,1.6-2.46,3.45-3.2,5.53-.74,2.09-1.11,4.3-1.11,6.65s.37,4.56,1.11,6.65c.74,2.09,1.81,3.93,3.2,5.53,1.39,1.6,3.17,2.86,5.34,3.78,2.17.92,4.58,1.38,7.23,1.38,3.56,0,7-.86,10.33-2.57l-1.7-5.48c-.87.45-1.61.81-2.21,1.07-.6.26-1.19.5-1.77.73-.58.23-1.12.39-1.6.51-.49.11-.98.2-1.48.27-.5.06-1.03.1-1.58.1-2.85,0-5.13-1.07-6.84-3.23-1.72-2.15-2.57-5.05-2.57-8.71,0-2.46.39-4.58,1.17-6.38.78-1.79,1.88-3.18,3.3-4.15Z"></path>
    <path class="cls-1" d="m487.8,166.59l-11.21,33.96h7.42l2.42-7.62h10.85l2.54,7.62h7.42l-11.21-33.96h-8.25Zm.36,20.91l3.79-11.93,3.56,11.93h-7.35Z"></path>
    <path class="cls-1" d="m530.55,182.02c1.65-1.72,2.47-3.74,2.47-6.07,0-2.55-.97-4.75-2.91-6.6-1.94-1.84-4.34-2.77-7.18-2.77h-11.74v33.96h12.76c3.14,0,5.76-1.01,7.88-3.03,2.12-2.02,3.18-4.44,3.18-7.25,0-1.68-.39-3.24-1.16-4.66-.78-1.42-1.88-2.62-3.3-3.59Zm-11.98-9.99h4.12c.78,0,1.45.36,2.01,1.09.56.73.85,1.67.85,2.84s-.28,2.11-.85,2.84c-.57.73-1.24,1.09-2.01,1.09h-4.12v-7.86Zm7.83,21.73c-.76.91-1.66,1.36-2.69,1.36h-5.14v-9.8h5.14c1.04,0,1.93.45,2.69,1.36.76.9,1.14,2.08,1.14,3.54s-.38,2.64-1.14,3.54Z"></path>
    <polygon class="cls-1" points="647.47 180.52 635.19 180.52 635.19 166.59 627.82 166.59 627.82 200.55 635.19 200.55 635.19 185.95 647.47 185.95 647.47 200.55 654.84 200.55 654.84 166.59 647.47 166.59 647.47 180.52"></polygon>
    <rect class="cls-1" x="540.1" y="166.59" width="7.37" height="33.96"></rect>
    <polygon class="cls-1" points="816.4 200.55 823.77 200.55 823.77 185.85 838.08 185.85 838.08 180.42 823.77 180.42 823.77 172.03 839.15 172.03 839.15 166.59 816.4 166.59 816.4 200.55"></polygon>
    <path class="cls-1" d="m689.8,171.32c-1.38-1.6-3.15-2.87-5.31-3.81-2.17-.94-4.58-1.41-7.25-1.41s-5.08.47-7.23,1.41c-2.15.94-3.92,2.21-5.31,3.81-1.39,1.6-2.46,3.45-3.2,5.53-.74,2.09-1.12,4.3-1.12,6.65s.37,4.56,1.12,6.65c.74,2.09,1.81,3.93,3.2,5.53,1.39,1.6,3.16,2.87,5.31,3.81,2.15.94,4.56,1.41,7.23,1.41s5.09-.47,7.25-1.41c2.17-.94,3.94-2.21,5.31-3.81,1.37-1.6,2.43-3.45,3.18-5.53.74-2.08,1.12-4.3,1.12-6.65s-.37-4.56-1.12-6.65c-.74-2.08-1.8-3.93-3.18-5.53Zm-5.72,20.91c-1.7,2.15-3.97,3.23-6.82,3.23s-5.13-1.07-6.84-3.23c-1.72-2.15-2.57-5.06-2.57-8.73s.86-6.58,2.57-8.73c1.72-2.15,4-3.23,6.84-3.23s5.12,1.07,6.82,3.23c1.7,2.15,2.55,5.06,2.55,8.73s-.85,6.58-2.55,8.73Z"></path>
    <path class="cls-1" d="m806.53,171.32c-1.38-1.6-3.15-2.87-5.31-3.81-2.17-.94-4.58-1.41-7.25-1.41s-5.08.47-7.23,1.41c-2.15.94-3.92,2.21-5.31,3.81-1.39,1.6-2.46,3.45-3.2,5.53-.74,2.09-1.12,4.3-1.12,6.65s.37,4.56,1.12,6.65c.74,2.09,1.81,3.93,3.2,5.53,1.39,1.6,3.16,2.87,5.31,3.81,2.15.94,4.56,1.41,7.23,1.41s5.08-.47,7.25-1.41c2.17-.94,3.94-2.21,5.31-3.81,1.37-1.6,2.43-3.45,3.18-5.53.74-2.08,1.12-4.3,1.12-6.65s-.37-4.56-1.12-6.65c-.74-2.08-1.8-3.93-3.18-5.53Zm-5.72,20.91c-1.7,2.15-3.97,3.23-6.82,3.23s-5.13-1.07-6.84-3.23c-1.72-2.15-2.57-5.06-2.57-8.73s.86-6.58,2.57-8.73c1.71-2.15,3.99-3.23,6.84-3.23s5.12,1.07,6.82,3.23c1.7,2.15,2.55,5.06,2.55,8.73s-.85,6.58-2.55,8.73Z"></path>
    <polygon class="cls-1" points="745.13 166.59 737.75 166.59 737.75 200.55 759.83 200.55 759.83 195.12 745.13 195.12 745.13 166.59"></polygon>
    <path class="cls-1" d="m727.88,171.32c-1.38-1.6-3.15-2.87-5.31-3.81s-4.58-1.41-7.25-1.41-5.08.47-7.23,1.41c-2.15.94-3.92,2.21-5.31,3.81-1.39,1.6-2.46,3.45-3.2,5.53-.74,2.09-1.12,4.3-1.12,6.65s.37,4.56,1.12,6.65c.74,2.09,1.81,3.93,3.2,5.53,1.39,1.6,3.16,2.87,5.31,3.81,2.15.94,4.56,1.41,7.23,1.41s5.09-.47,7.25-1.41,3.94-2.21,5.31-3.81c1.38-1.6,2.43-3.45,3.18-5.53.74-2.08,1.12-4.3,1.12-6.65s-.37-4.56-1.12-6.65c-.74-2.08-1.8-3.93-3.18-5.53Zm-5.72,20.91c-1.7,2.15-3.97,3.23-6.82,3.23s-5.13-1.07-6.84-3.23c-1.71-2.15-2.57-5.06-2.57-8.73s.86-6.58,2.57-8.73c1.72-2.15,3.99-3.23,6.84-3.23s5.12,1.07,6.82,3.23c1.7,2.15,2.55,5.06,2.55,8.73s-.85,6.58-2.55,8.73Z"></path>
    <path class="cls-1" d="m52.91,163.41c.57-1.3.85-2.68.85-4.15v-10.61h-10.59c-1.46,0-2.84.29-4.14.85-1.3.57-2.42,1.34-3.35,2.32-.93.98-1.69,2.09-2.25,3.36-.57,1.26-.85,2.62-.85,4.09s.28,2.85.85,4.15c.57,1.3,1.34,2.42,2.31,3.35.98.94,2.09,1.69,3.35,2.25,1.26.57,2.62.86,4.08.86s2.82-.26,4.08-.79c1.26-.52,2.37-1.28,3.34-2.25.98-.98,1.75-2.11,2.32-3.42m45.36,3.35c2.07-2.07,3.11-4.57,3.11-7.5v-26.47c0-1.47-.26-2.83-.79-4.09-.53-1.26-1.28-2.38-2.25-3.36-.97-.98-2.11-1.75-3.41-2.32-1.3-.57-2.68-.86-4.14-.86s-2.84.29-4.14.86c-1.3.57-2.44,1.34-3.41,2.32-.98.98-1.73,2.1-2.25,3.36-.53,1.26-.79,2.62-.79,4.09v26.47c0,2.93,1.04,5.43,3.11,7.5,2.07,2.07,4.56,3.11,7.49,3.11s5.42-1.04,7.49-3.11m139.25,7.38h-9.86v-41.34c0-2.93-1.04-5.43-3.11-7.5-2.07-2.08-4.57-3.11-7.49-3.11s-5.42,1.04-7.49,3.11c-2.07,2.07-3.1,4.57-3.1,7.5v41.34h-9.87v-41.34c0-2.93-1.04-5.43-3.11-7.5-2.07-2.08-4.57-3.11-7.49-3.11s-5.42,1.04-7.49,3.11c-2.07,2.07-3.11,4.57-3.11,7.5v41.34h-9.86v-41.34c0-2.2.53-4.25,1.58-6.16,1.05-1.91,2.52-3.6,4.38-5.06,1.87-1.46,4.04-2.6,6.51-3.42,2.48-.81,5.14-1.22,7.98-1.22,3.08,0,5.97.49,8.65,1.46,2.68.98,4.95,2.32,6.82,4.02,1.86-1.71,4.16-3.05,6.88-4.02,2.72-.97,5.62-1.46,8.71-1.46,2.84,0,5.5.41,7.98,1.22,2.48.81,4.65,1.95,6.52,3.42,1.87,1.46,3.33,3.15,4.38,5.06,1.06,1.91,1.58,3.97,1.58,6.16v41.34Zm-77.45-14.88c0,2.2-.53,4.25-1.58,6.16-1.05,1.91-2.51,3.6-4.38,5.06-1.87,1.46-4.04,2.6-6.51,3.42-2.48.81-5.14,1.22-7.98,1.22s-5.4-.41-7.92-1.22c-2.52-.81-4.69-1.95-6.52-3.42-1.83-1.47-3.29-3.15-4.38-5.06-1.1-1.91-1.64-3.96-1.64-6.16h9.86c0,1.46.28,2.85.85,4.15.56,1.3,1.34,2.42,2.31,3.35.97.94,2.09,1.69,3.35,2.25,1.26.57,2.62.86,4.08.86s2.82-.26,4.08-.79c1.26-.52,2.38-1.28,3.35-2.25.98-.98,1.75-2.11,2.32-3.42.57-1.3.85-2.68.85-4.15,0-2.68-.73-4.7-2.19-6.04-1.46-1.34-3.27-2.42-5.42-3.23-2.15-.81-4.49-1.5-7-2.08-2.52-.57-4.86-1.4-7.01-2.5-2.15-1.1-3.96-2.6-5.42-4.51-1.46-1.91-2.19-4.62-2.19-8.11,0-2.2.47-4.25,1.4-6.16.93-1.91,2.25-3.58,3.96-5,1.71-1.42,3.73-2.56,6.09-3.42,2.36-.85,4.95-1.28,7.8-1.28,2.19,0,4.18.22,5.97.67,1.78.45,3.35,1,4.69,1.65,1.34.65,2.45,1.3,3.35,1.95.89.65,1.58,1.22,2.07,1.71-.24.24-.67.65-1.28,1.22-.61.57-1.24,1.2-1.89,1.89-.65.69-1.28,1.33-1.89,1.89-.61.57-1,.94-1.16,1.1-.16-.57-.49-1.24-.97-2.01-.49-.77-1.14-1.52-1.95-2.25-.81-.73-1.79-1.34-2.92-1.83-1.14-.49-2.47-.73-4.02-.73-1.46,0-2.84.29-4.14.86-1.3.57-2.44,1.34-3.41,2.32-.97.98-1.72,2.1-2.25,3.36-.53,1.26-.79,2.62-.79,4.09,0,2.6.75,4.57,2.25,5.91,1.5,1.34,3.39,2.38,5.66,3.11,2.27.73,4.71,1.38,7.31,1.95,2.6.57,5.03,1.38,7.31,2.44,2.27,1.06,4.16,2.59,5.66,4.57,1.5,1.99,2.25,4.82,2.25,8.48m-48.83,14.88h-9.62v-4.14h-.24c-.89.9-2.03,1.75-3.41,2.56-1.14.65-2.54,1.24-4.2,1.77-1.67.53-3.55.8-5.66.8-2.44,0-4.73-.41-6.88-1.22-2.15-.81-4.04-1.95-5.66-3.42-1.63-1.47-2.9-3.15-3.84-5.06-.93-1.91-1.4-3.96-1.4-6.16v-26.47c0-2.2.47-4.25,1.4-6.16.94-1.91,2.21-3.6,3.84-5.06,1.62-1.47,3.51-2.6,5.66-3.42,2.15-.81,4.45-1.22,6.88-1.22,2.11,0,3.96.24,5.54.73,1.58.49,2.94,1.06,4.08,1.71,1.3.73,2.43,1.58,3.41,2.56h.24v-36.84h9.87v89.04Zm-47.62,0h-9.62v-4.14h-.25c-.89.9-2.03,1.75-3.41,2.56-1.14.65-2.54,1.24-4.2,1.77-1.66.53-3.55.8-5.66.8-2.43,0-4.73-.41-6.88-1.22-2.15-.81-4.04-1.93-5.66-3.36-1.62-1.42-2.9-3.11-3.83-5.06-.94-1.95-1.4-4.02-1.4-6.22s.47-4.27,1.4-6.22c.93-1.95,2.21-3.64,3.83-5.06,1.62-1.42,3.51-2.54,5.66-3.35,2.15-.81,4.45-1.22,6.88-1.22h13.27v-10.61c0-2.93-1.04-5.43-3.1-7.5-2.07-2.07-4.57-3.11-7.49-3.11-2.11,0-3.98.53-5.6,1.58-1.62,1.06-2.88,2.48-3.77,4.27l-5.85-5.86c1.87-1.62,4.1-2.9,6.7-3.84,2.6-.93,5.44-1.4,8.52-1.4,2.84,0,5.5.41,7.98,1.22,2.48.81,4.63,1.95,6.45,3.42,1.83,1.46,3.29,3.15,4.38,5.06,1.1,1.91,1.64,3.97,1.64,6.16v41.34Zm196.6,63.99V22.09s0-22.09-22.09-22.09H22.09S0,0,0,22.09v216.04s0,22.09,22.09,22.09h216.04s22.09,0,22.09-22.09"></path>
  </g>
</svg>
