<?xml version="1.0" encoding="utf-8"?>
<svg version="1.1" id="Layer_1" xmlns="http://www.w3.org/2000/svg" xmlns:xlink="http://www.w3.org/1999/xlink" x="0px" y="0px"
	 viewBox="0 0 1652.366 1652.366" enable-background="new 0 0 1652.366 1652.366" xml:space="preserve">
<g>
	<g>
		<path fill="#3E3E3E" d="M1625.914,975.325c4.7-57.259-52.608-91.909-100.558-56.453c-38.82,28.604-34.121,86.599,2.305,111.318
			C1569.109,1058.305,1620.832,1030.339,1625.914,975.325"/>
		<path fill="#3E3E3E" d="M1496.92,917.507c-15.8-55.365-55.694-79.755-113.974-82.808c-0.819,69.634-16.066,141.224-38.917,196.758
			c53.992,18.988,101.107,12.933,136.997-33.378c-27.226-21.374-59.216-41.21-88.661-59.164
			C1430.936,932.589,1464.682,927.419,1496.92,917.507"/>
	</g>
	<g>
		<path fill="#3E3E3E" d="M1507.797,1270.19c24.883-46.698-8.409-99.229-61.347-92.627c-30.973,3.853-52.205,24.309-59.046,51.809
			C1368.807,1303.482,1467.06,1347.98,1507.797,1270.19"/>
		<path fill="#3E3E3E" d="M1410.966,1167.217c6.741-57.327-20.697-94.933-73.451-120.129
			c-27.802,63.706-65.858,120.025-111.632,166.787c43.089,38.597,88.723,50.464,139.415,21.607
			c-16.756-29.699-38.797-61.002-59.082-88.7C1340.773,1154.856,1375.698,1163.801,1410.966,1167.217"/>
	</g>
	<g>
		<path fill="#3E3E3E" d="M1286.156,1497.11c48.499-41.369,21.586-112.015-41.17-111.76c-25.296,0.023-47.017,13.664-59.432,35.759
			C1149.816,1484.393,1225.098,1549.896,1286.156,1497.11"/>
		<path fill="#3E3E3E" d="M1235.865,1365.005c28.205-50.805,16.741-96.1-21.99-139.121
			c-46.751,45.763-102.967,83.78-166.787,111.631c24.767,51.523,62.153,80.714,120.545,73.205
			c-4.426-35.52-12.456-69.879-20.828-104.518C1175.016,1326.435,1205.373,1348.894,1235.865,1365.005"/>
	</g>
	<g>
		<path fill="#3E3E3E" d="M994.193,1622.188c42.329-13.737,57.587-55.448,39.941-88.086
			c-36.188-66.975-137.267-32.807-128.934,39.016C909.91,1614.479,953.63,1635.277,994.193,1622.188"/>
		<path fill="#3E3E3E" d="M998.545,1480.9c45.684-36.209,52.177-82.521,32.912-136.871
			c-54.634,22.495-126.236,38.097-196.758,38.917c3.216,58.58,27.877,98.744,83.286,113.907
			c9.571-34.461,15.422-69.439,20.957-104.494C956.66,1421.036,977.077,1455.065,998.545,1480.9"/>
	</g>
	<g>
		<path fill="#3E3E3E" d="M677.041,1625.914c57.259,4.7,91.909-52.608,56.453-100.558c-28.6-38.814-86.596-34.127-111.318,2.305
			C594.126,1569.012,621.891,1620.819,677.041,1625.914"/>
		<path fill="#3E3E3E" d="M734.859,1496.92c55.366-15.8,79.755-55.697,82.808-113.974c-70.244-0.817-141.908-16.334-196.758-38.917
			c-18.988,53.992-12.933,101.108,33.378,136.997c21.382-27.237,41.218-59.23,59.164-88.661
			C719.772,1430.906,724.946,1464.681,734.859,1496.92"/>
	</g>
	<g>
		<path fill="#3E3E3E" d="M382.176,1507.797c46.757,24.915,99.221-8.463,92.627-61.347c-3.783-30.415-23.76-52.068-51.809-59.046
			C348.934,1368.822,304.317,1467.026,382.176,1507.797"/>
		<path fill="#3E3E3E" d="M485.149,1410.966c57.315,6.74,94.926-20.683,120.129-73.451
			c-63.69-27.794-120.013-65.846-166.787-111.631c-38.597,43.09-50.464,88.723-21.607,139.415
			c29.761-16.791,61.099-38.868,88.7-59.082C497.525,1340.708,488.568,1375.669,485.149,1410.966"/>
	</g>
	<g>
		<path fill="#3E3E3E" d="M155.256,1286.156c41.376,48.507,112.015,21.591,111.76-41.17c-0.023-25.535-13.874-47.134-35.759-59.432
			C167.989,1149.828,102.465,1225.091,155.256,1286.156"/>
		<path fill="#3E3E3E" d="M287.361,1235.865c50.805,28.205,96.1,16.741,139.121-21.99
			c-47.123-48.146-84.577-104.793-111.632-166.787c-51.523,24.766-80.714,62.153-73.205,120.545
			c35.512-4.424,69.877-12.455,104.518-20.828C325.918,1175.033,303.473,1205.373,287.361,1235.865"/>
	</g>
	<g>
		<path fill="#3E3E3E" d="M30.178,994.193c13.729,42.302,55.426,57.599,88.086,39.941c67.128-36.271,32.677-137.251-39.016-128.934
			C38.12,909.884,17.001,953.357,30.178,994.193"/>
		<path fill="#3E3E3E" d="M171.466,998.545c36.218,45.695,82.538,52.171,136.871,32.912
			c-22.705-55.216-38.098-126.699-38.917-196.758c-58.58,3.216-98.744,27.877-113.907,83.286
			c34.46,9.571,69.439,15.422,104.494,20.957C231.33,956.659,197.301,977.077,171.466,998.545"/>
	</g>
	<g>
		<path fill="#3E3E3E" d="M26.452,677.041c-4.7,57.254,52.603,91.912,100.558,56.453c38.781-28.575,34.157-86.575-2.305-111.318
			C83.304,594.092,31.541,621.961,26.452,677.041"/>
		<path fill="#3E3E3E" d="M155.446,734.859c15.799,55.365,55.694,79.755,113.974,82.808c0.815-69.652,16.074-141.221,38.917-196.758
			c-53.993-18.988-101.107-12.933-136.997,33.378c27.226,21.374,59.216,41.209,88.662,59.164
			C221.425,719.778,187.671,724.95,155.446,734.859"/>
	</g>
	<g>
		<path fill="#3E3E3E" d="M144.569,382.176c-24.881,46.693,8.404,99.228,61.347,92.627c31.001-3.856,52.212-24.335,59.046-51.809
			C283.545,348.934,185.339,304.318,144.569,382.176"/>
		<path fill="#3E3E3E" d="M241.4,485.149c-6.74,57.313,20.681,94.925,73.451,120.129c27.92-63.979,66.055-120.223,111.632-166.787
			c-43.09-38.597-88.723-50.464-139.415-21.607c16.796,29.769,38.877,61.111,59.082,88.7
			C311.668,497.527,276.697,488.568,241.4,485.149"/>
	</g>
	<g>
		<path fill="#3E3E3E" d="M366.21,155.256c-48.68,41.524-21.34,112.014,41.17,111.76c25.894-0.024,47.328-14.218,59.432-35.759
			C502.537,167.994,427.287,102.454,366.21,155.256"/>
		<path fill="#3E3E3E" d="M416.501,287.361c-28.206,50.807-16.739,96.102,21.99,139.121
			c46.529-45.542,102.66-83.647,166.787-111.632c-24.767-51.522-62.153-80.714-120.545-73.205
			c4.426,35.519,12.457,69.886,20.827,104.518C477.333,325.918,446.993,303.473,416.501,287.361"/>
	</g>
	<g>
		<path fill="#3E3E3E" d="M658.172,30.178c-42.103,13.664-57.684,55.267-39.941,88.086c36.235,67.062,137.259,32.741,128.934-39.016
			C742.478,38.081,698.977,17.012,658.172,30.178"/>
		<path fill="#3E3E3E" d="M653.821,171.466c-45.696,36.218-52.171,82.538-32.912,136.871
			c55.44-22.818,127.049-38.102,196.758-38.917c-3.216-58.581-27.877-98.744-83.286-113.907
			c-9.571,34.46-15.422,69.439-20.957,104.494C695.706,231.328,675.288,197.301,653.821,171.466"/>
	</g>
	<g>
		<path fill="#3E3E3E" d="M975.325,26.452c-57.297-4.704-91.887,52.636-56.453,100.558c28.66,38.897,86.653,34.045,111.318-2.305
			C1058.378,83.152,1030.214,31.523,975.325,26.452"/>
		<path fill="#3E3E3E" d="M917.507,155.446c-55.365,15.799-79.755,55.694-82.808,113.974
			c69.163,0.809,140.833,15.899,196.758,38.917c18.987-53.992,12.933-101.107-33.378-136.997
			c-21.374,27.226-41.21,59.216-59.164,88.662C932.661,221.869,927.466,187.836,917.507,155.446"/>
	</g>
	<g>
		<path fill="#3E3E3E" d="M1270.19,144.569c-46.695-24.881-99.227,8.404-92.627,61.347c3.854,30.986,24.322,52.208,51.809,59.046
			C1303.475,283.556,1347.978,185.304,1270.19,144.569"/>
		<path fill="#3E3E3E" d="M1167.217,241.4c-57.315-6.74-94.926,20.683-120.129,73.451c61.999,27.057,118.645,64.512,166.787,111.632
			c38.597-43.089,50.464-88.723,21.607-139.415c-29.754,16.787-61.09,38.862-88.7,59.082
			C1154.839,311.668,1163.798,276.697,1167.217,241.4"/>
	</g>
	<g>
		<path fill="#3E3E3E" d="M1497.11,366.21c-41.376-48.507-112.015-21.591-111.76,41.17c0.024,25.535,13.875,47.134,35.759,59.432
			C1484.372,502.536,1549.912,427.286,1497.11,366.21"/>
		<path fill="#3E3E3E" d="M1365.005,416.501c-50.805-28.205-96.099-16.741-139.121,21.99
			c45.856,46.847,83.838,103.097,111.632,166.787c51.522-24.767,80.714-62.153,73.205-120.545
			c-35.522,4.426-69.897,12.46-104.518,20.827C1326.457,477.32,1348.893,446.993,1365.005,416.501"/>
	</g>
	<g>
		<path fill="#3E3E3E" d="M1622.188,658.172c-13.729-42.302-55.426-57.599-88.086-39.941
			c-67.266,36.344-32.542,137.236,39.016,128.934C1614.151,742.493,1635.402,699.124,1622.188,658.172"/>
		<path fill="#3E3E3E" d="M1480.9,653.821c-36.218-45.695-82.538-52.171-136.871-32.912
			c22.763,55.302,38.095,126.875,38.917,196.758c58.58-3.216,98.744-27.877,113.907-83.286
			c-34.461-9.571-69.439-15.422-104.494-20.957C1421.043,695.702,1455.065,675.289,1480.9,653.821"/>
	</g>
</g>
</svg>
